<mxfile host="app.diagrams.net" modified="2023-08-21T10:56:17.248Z" agent="Mozilla/5.0 (X11; Linux x86_64) AppleWebKit/537.36 (KHTML, like Gecko) Chrome/114.0.0.0 Safari/537.36" etag="BE4tLyUvoJ6GWbOC0YjT" version="21.6.8" type="device">
  <diagram name="Страница — 1" id="xeil9ZyKaj4dImCqDtCU">
    <mxGraphModel dx="919" dy="572" grid="1" gridSize="10" guides="1" tooltips="1" connect="1" arrows="1" fold="1" page="1" pageScale="1" pageWidth="827" pageHeight="1169" math="0" shadow="0">
      <root>
        <mxCell id="0" />
        <mxCell id="1" parent="0" />
        <mxCell id="mz-s8sKTPcAs_DyYWYQh-3" value="" style="edgeStyle=orthogonalEdgeStyle;rounded=0;orthogonalLoop=1;jettySize=auto;html=1;" edge="1" parent="1" source="mz-s8sKTPcAs_DyYWYQh-1" target="mz-s8sKTPcAs_DyYWYQh-2">
          <mxGeometry relative="1" as="geometry" />
        </mxCell>
        <mxCell id="mz-s8sKTPcAs_DyYWYQh-1" value="start" style="rounded=1;whiteSpace=wrap;html=1;" vertex="1" parent="1">
          <mxGeometry x="340" y="10" width="120" height="60" as="geometry" />
        </mxCell>
        <mxCell id="mz-s8sKTPcAs_DyYWYQh-5" value="" style="edgeStyle=orthogonalEdgeStyle;rounded=0;orthogonalLoop=1;jettySize=auto;html=1;" edge="1" parent="1" source="mz-s8sKTPcAs_DyYWYQh-2" target="mz-s8sKTPcAs_DyYWYQh-4">
          <mxGeometry relative="1" as="geometry" />
        </mxCell>
        <mxCell id="mz-s8sKTPcAs_DyYWYQh-2" value="lst = range(1,16)&lt;br&gt;sum = 0" style="rounded=0;whiteSpace=wrap;html=1;" vertex="1" parent="1">
          <mxGeometry x="340" y="120" width="120" height="60" as="geometry" />
        </mxCell>
        <mxCell id="mz-s8sKTPcAs_DyYWYQh-8" value="" style="edgeStyle=orthogonalEdgeStyle;rounded=0;orthogonalLoop=1;jettySize=auto;html=1;" edge="1" parent="1" source="mz-s8sKTPcAs_DyYWYQh-4" target="mz-s8sKTPcAs_DyYWYQh-7">
          <mxGeometry relative="1" as="geometry" />
        </mxCell>
        <mxCell id="mz-s8sKTPcAs_DyYWYQh-11" value="" style="edgeStyle=orthogonalEdgeStyle;rounded=0;orthogonalLoop=1;jettySize=auto;html=1;" edge="1" parent="1" source="mz-s8sKTPcAs_DyYWYQh-4" target="mz-s8sKTPcAs_DyYWYQh-6">
          <mxGeometry relative="1" as="geometry" />
        </mxCell>
        <mxCell id="mz-s8sKTPcAs_DyYWYQh-4" value="for el in lst" style="shape=hexagon;perimeter=hexagonPerimeter2;whiteSpace=wrap;html=1;fixedSize=1;" vertex="1" parent="1">
          <mxGeometry x="340" y="210" width="120" height="80" as="geometry" />
        </mxCell>
        <mxCell id="mz-s8sKTPcAs_DyYWYQh-13" value="" style="edgeStyle=orthogonalEdgeStyle;rounded=0;orthogonalLoop=1;jettySize=auto;html=1;" edge="1" parent="1" source="mz-s8sKTPcAs_DyYWYQh-6" target="mz-s8sKTPcAs_DyYWYQh-12">
          <mxGeometry relative="1" as="geometry" />
        </mxCell>
        <mxCell id="mz-s8sKTPcAs_DyYWYQh-17" value="Yes" style="edgeLabel;html=1;align=center;verticalAlign=middle;resizable=0;points=[];" vertex="1" connectable="0" parent="mz-s8sKTPcAs_DyYWYQh-13">
          <mxGeometry x="-0.2" y="-1" relative="1" as="geometry">
            <mxPoint as="offset" />
          </mxGeometry>
        </mxCell>
        <mxCell id="mz-s8sKTPcAs_DyYWYQh-15" style="edgeStyle=orthogonalEdgeStyle;rounded=0;orthogonalLoop=1;jettySize=auto;html=1;exitX=0;exitY=0.5;exitDx=0;exitDy=0;" edge="1" parent="1" source="mz-s8sKTPcAs_DyYWYQh-6">
          <mxGeometry relative="1" as="geometry">
            <mxPoint x="340" y="250" as="targetPoint" />
            <Array as="points">
              <mxPoint x="280" y="370" />
              <mxPoint x="280" y="250" />
            </Array>
          </mxGeometry>
        </mxCell>
        <mxCell id="mz-s8sKTPcAs_DyYWYQh-16" value="No" style="edgeLabel;html=1;align=center;verticalAlign=middle;resizable=0;points=[];" vertex="1" connectable="0" parent="mz-s8sKTPcAs_DyYWYQh-15">
          <mxGeometry x="-0.2273" y="-2" relative="1" as="geometry">
            <mxPoint as="offset" />
          </mxGeometry>
        </mxCell>
        <mxCell id="mz-s8sKTPcAs_DyYWYQh-6" value="el % 2 == 0" style="rhombus;whiteSpace=wrap;html=1;" vertex="1" parent="1">
          <mxGeometry x="320" y="330" width="160" height="80" as="geometry" />
        </mxCell>
        <mxCell id="mz-s8sKTPcAs_DyYWYQh-10" value="" style="edgeStyle=orthogonalEdgeStyle;rounded=0;orthogonalLoop=1;jettySize=auto;html=1;" edge="1" parent="1" source="mz-s8sKTPcAs_DyYWYQh-7" target="mz-s8sKTPcAs_DyYWYQh-9">
          <mxGeometry relative="1" as="geometry" />
        </mxCell>
        <mxCell id="mz-s8sKTPcAs_DyYWYQh-7" value="sum" style="shape=document;whiteSpace=wrap;html=1;boundedLbl=1;" vertex="1" parent="1">
          <mxGeometry x="530" y="210" width="120" height="80" as="geometry" />
        </mxCell>
        <mxCell id="mz-s8sKTPcAs_DyYWYQh-9" value="end" style="rounded=1;whiteSpace=wrap;html=1;" vertex="1" parent="1">
          <mxGeometry x="530" y="330" width="120" height="60" as="geometry" />
        </mxCell>
        <mxCell id="mz-s8sKTPcAs_DyYWYQh-14" style="edgeStyle=orthogonalEdgeStyle;rounded=0;orthogonalLoop=1;jettySize=auto;html=1;entryX=0;entryY=0.5;entryDx=0;entryDy=0;" edge="1" parent="1" source="mz-s8sKTPcAs_DyYWYQh-12" target="mz-s8sKTPcAs_DyYWYQh-4">
          <mxGeometry relative="1" as="geometry">
            <Array as="points">
              <mxPoint x="130" y="480" />
              <mxPoint x="130" y="250" />
            </Array>
          </mxGeometry>
        </mxCell>
        <mxCell id="mz-s8sKTPcAs_DyYWYQh-12" value="sum += el" style="rounded=0;whiteSpace=wrap;html=1;" vertex="1" parent="1">
          <mxGeometry x="340" y="450" width="120" height="60" as="geometry" />
        </mxCell>
      </root>
    </mxGraphModel>
  </diagram>
</mxfile>
